<mxfile host="app.diagrams.net" agent="Mozilla/5.0 (Windows NT 10.0; Win64; x64) AppleWebKit/537.36 (KHTML, like Gecko) Chrome/133.0.0.0 Safari/537.36" version="26.1.0">
  <diagram name="Page-1" id="1MS2ojPHcwavfV_PmTxh">
    <mxGraphModel dx="1050" dy="625" grid="1" gridSize="10" guides="1" tooltips="1" connect="1" arrows="1" fold="1" page="1" pageScale="1" pageWidth="827" pageHeight="1169" math="0" shadow="0">
      <root>
        <mxCell id="0" />
        <mxCell id="1" parent="0" />
        <mxCell id="Rww8otDY1He0HiNTLSRC-1" value="" style="verticalLabelPosition=bottom;html=1;verticalAlign=top;align=center;strokeColor=none;fillColor=#00BEF2;shape=mxgraph.azure.mobile_services;pointerEvents=1;" vertex="1" parent="1">
          <mxGeometry x="280" y="40" width="36.5" height="50" as="geometry" />
        </mxCell>
        <mxCell id="Rww8otDY1He0HiNTLSRC-2" value="&lt;div style=&quot;line-height: 90%;&quot;&gt;&lt;h4 style=&quot;padding-left: 0px;&quot;&gt;&lt;font face=&quot;Courier New&quot;&gt;互&lt;/font&gt;&lt;/h4&gt;&lt;h4 style=&quot;padding-left: 0px;&quot;&gt;&lt;font face=&quot;Courier New&quot;&gt;联&lt;/font&gt;&lt;/h4&gt;&lt;h4 style=&quot;padding-left: 0px;&quot;&gt;&lt;font face=&quot;Courier New&quot;&gt;网&lt;/font&gt;&lt;/h4&gt;&lt;h4 style=&quot;padding-left: 0px;&quot;&gt;客&lt;/h4&gt;&lt;h4 style=&quot;padding-left: 0px;&quot;&gt;户&lt;/h4&gt;&lt;h4 style=&quot;padding-left: 0px;&quot;&gt;端&lt;/h4&gt;&lt;/div&gt;" style="text;html=1;align=center;verticalAlign=middle;whiteSpace=wrap;rounded=0;fillColor=#dae8fc;strokeColor=default;fillStyle=auto;gradientColor=none;shadow=0;glass=1;imageVerticalAlign=middle;" vertex="1" parent="1">
          <mxGeometry x="40" y="40" width="60" height="210" as="geometry" />
        </mxCell>
        <mxCell id="Rww8otDY1He0HiNTLSRC-3" value="&lt;div style=&quot;line-height: 90%;&quot;&gt;&lt;h4 style=&quot;padding-left: 0px;&quot;&gt;&lt;font face=&quot;Courier New&quot;&gt;网&lt;/font&gt;&lt;/h4&gt;&lt;h4 style=&quot;padding-left: 0px;&quot;&gt;&lt;font face=&quot;Courier New&quot;&gt;关&lt;/font&gt;&lt;/h4&gt;&lt;h4 style=&quot;padding-left: 0px;&quot;&gt;&lt;font face=&quot;Courier New&quot;&gt;层&lt;/font&gt;&lt;/h4&gt;&lt;div&gt;&lt;font face=&quot;Courier New&quot;&gt;&lt;br&gt;&lt;/font&gt;&lt;/div&gt;&lt;/div&gt;" style="text;html=1;align=center;verticalAlign=middle;whiteSpace=wrap;rounded=0;fillColor=#dae8fc;strokeColor=default;fillStyle=auto;gradientColor=none;shadow=0;glass=1;imageVerticalAlign=middle;" vertex="1" parent="1">
          <mxGeometry x="40" y="280" width="60" height="210" as="geometry" />
        </mxCell>
        <mxCell id="Rww8otDY1He0HiNTLSRC-4" value="" style="image;html=1;image=img/lib/clip_art/computers/Server_Tower_128x128.png" vertex="1" parent="1">
          <mxGeometry x="292" y="315" width="64" height="60" as="geometry" />
        </mxCell>
        <mxCell id="Rww8otDY1He0HiNTLSRC-5" style="edgeStyle=orthogonalEdgeStyle;rounded=0;orthogonalLoop=1;jettySize=auto;html=1;" edge="1" parent="1" source="Rww8otDY1He0HiNTLSRC-7">
          <mxGeometry relative="1" as="geometry">
            <mxPoint x="324" y="270" as="targetPoint" />
          </mxGeometry>
        </mxCell>
        <mxCell id="Rww8otDY1He0HiNTLSRC-6" value="Http Request" style="edgeLabel;html=1;align=center;verticalAlign=middle;resizable=0;points=[];" vertex="1" connectable="0" parent="Rww8otDY1He0HiNTLSRC-5">
          <mxGeometry x="0.2289" y="-5" relative="1" as="geometry">
            <mxPoint as="offset" />
          </mxGeometry>
        </mxCell>
        <mxCell id="Rww8otDY1He0HiNTLSRC-7" value="App" style="rounded=0;whiteSpace=wrap;html=1;fillColor=#e1d5e7;strokeColor=#9673a6;" vertex="1" parent="1">
          <mxGeometry x="202" y="150" width="244" height="60" as="geometry" />
        </mxCell>
        <mxCell id="Rww8otDY1He0HiNTLSRC-8" style="edgeStyle=orthogonalEdgeStyle;rounded=0;orthogonalLoop=1;jettySize=auto;html=1;entryX=0.397;entryY=-0.017;entryDx=0;entryDy=0;entryPerimeter=0;" edge="1" parent="1" source="Rww8otDY1He0HiNTLSRC-1" target="Rww8otDY1He0HiNTLSRC-7">
          <mxGeometry relative="1" as="geometry" />
        </mxCell>
        <mxCell id="Rww8otDY1He0HiNTLSRC-9" value="" style="shape=image;verticalLabelPosition=bottom;labelBackgroundColor=default;verticalAlign=top;aspect=fixed;imageAspect=0;image=data:image/png,iVBORw0KGgoAAAANSUhEUgAAAIUAAABeCAIAAACCQUCHAAAgAElEQVR4Ae19B3gcx5EuCIBZWbKcLd+d79357LMlkgA27yIRYAKRsYjMVCQVqGQli0kkASywOQFgzjmJpEhKosSccwSRQcTNOzupu6ff17MgGETZ0ruzST9rvv4Gs7OD2Z7+u6q7qv+qiRAe+A3/pU2468sH/mn+SgUj/sr3D+rXGCMBA4w4sQDyCQlYEE+jB7XS36Fe/wB4oDs2CAUeYJbHLIcZRqAYGOQBK0AkQBRGRfgBj+8A/P/7JQhBsRBYIIIAAxZzNGZ82N+Buzuwx4dDLEaMQGCBAuqFAwkCxKT8A23/APIhIIAQgAgSWATIYUBjvgV1f9ZwYOaGcv3uJefoG7XA14RpF+YhuYroLgH1gPEDHv+L3RFhhDAACHAM4ijEBhDbxrhPtl+Zt2+JYkHJH94fM/Tj7FT9NP3ZHZ/TDbXYTyOeKC5eECDiMQJiEdH5X6zV3/BWD7R8kC4OAYaAR1w3puqR61D3ZdOhNRk1b/xmQfaPS9OeLhv9VEXqI/NTn1mQm7fmY+fFnWf9dV7OBwELEM9inhf/P6y1evXY37A5/8e3fnDxQAgBwPM8y2GuW6BOs43OC1snbZz1bEXuzytGPWYY+ZAx9SFTykBrfKRe9pBO/a/lqRJD7hufzd/QtPs6bHZjL41pFgMeAyCOImS4f+C3Bw4PjMhMKbzxPEuxoVa6c9vVA69tKZXoC38yP/EJa1I/Z3xkVXy0Mz7KqY6okkc4YiNtsY8aYp+ukP1aF59QXfjel7pDrUc8vIvGPIFEAEAACInScmu8fxDBecDwQILAQ8xwAs9RAtWG3Zsbv3p5e6nGNvVf56T+tCJpsEUeXS2LWCTts1AaXS2LrpJHVMsinJIIpyzKJutrUQw0qwYbNE+ZR2ctfcO0f8VVpqWd6wrBAOYoHAphlsUQkLH+Qd0eIDwwEhAALKB9kOrCvtPs1Tlf21TGol/OS3lqXvwTOs3DRkVfuySqKi6yKja6Kq5flbSfUxHtkEfYFREOVYRd08cWH2lLiLIm9jcl/6Q0VVJROHnpe1XH1zTjDi/uEng/5kMIsBACJEoJePCmwvcfj15rT+AAYBkX9p/CNyovrUtfM/3fDamPlMsH6lUD9KoBJmW0Vd7HKelTFRfljIuukvRzyvo5FX2dqkiHMtKhinTER9oTIu2J0baEvrb4/hb1o4b4X5UmDTNmFq17Z33Xnlrc0g3cIZbmOA4AAgkvjis9VuSDITH3Fw8sQAFzAiBmA+Z5yLH+I+6LEzbM+/fKUT+2KQfYZRFOaYQjNsIujXBIiF6qiu3jjOvrkEQ7pH0d8r52ZbRDFelURhJU1JEODUHFoY6oUkQsjI2ojh1gjX1cL/vxXNUfytPe3mc64r9KsRTNchyAjADpH/C4uxcCiFmI6JALdF9CDa8ftT9XnvcvsxMfr5D1tcf1IQNDLCnWoRH6P0YYnutjiYu2h2FQRDsU0Q5ltF0daZf1cZASZVdEEVRUfapkEdUEj0indIBNMdisGaxPivok/g/2yYuvfX4d+7sw1415PwZAgGFHy90Vu0+f7698ICjwPhis41u3tH45wjr5ZzMTntGNeLpUNtgg7WeVP2xUPqVT/bhc83R5/BOlqkd1ZLjub1H2tSmibcpomzLKpoq0qSLt8jAefRzyaIdisFn5o0rVTypUT+jVg+3J/RxJg63Jj5hSHzGM+HHlmH+fl/H85gV7g5euYk83pjnEYdHxdZ/a/+6fvb94QB4zJ0OXp2748F/+rP7RfOVDFfLBlYqBRmm0RTbIpPrlXLV8XmZm1WvpVW/El5f8ds6ovoaEfiZNX4u8r00ZbdVE2dQiHopIu4xIiVPe36b66YJ4RVnGWNMEpXX8k6aM6Kq0QZaRDxtTBhuSBpkSHrOkPDY7/r/mZ1UeXnkp0MQKHAYIw7vb5X59vs94IMxubvn63+eNftKeHKkbEm2OizLHRVok0RbZT41J2hWv7m0+cAV2XoXu497rpV8s/g9b4eNlmoeN0n5WWZRNGWlXRtrDYEij7JK+dtnjJk3Wmld3tR5oxa5LfMub+20DdMMHGZIH6xMHGtT9zIr+VsUjFvUjZfJc06sXAs0MYom/GBCT535hcPvv3l88iAf207rDvypLj7DJ+liGRlpjIy2SSItksEn+rCNrce32JqbTwwa9bMjDUg2hrk9OrhpSkfHTMukgszTSLheLNNIujbRLouySgVbZfzjSdOeWtQg+P8NyQf8l6uKz5oz+FaoBlZoBlcoBRtkgk2SwKWawaVie7c0rVAcNGMTxiAOiI5LM9W5vnb//8X3HQ9hVe+yZ0swIuzLKNizKFhtllUZZpAMrJHHO/B2uU52Q9XGsj6O8LNUJgke4+o8OWobqRz+iV0ba1CIekki7JNIui7LLBlkUMUsKFjXu6sBskIaACjbjhviV4/tVKvpXqvvrlQON8kEm6UBT7GBTTK7t7avBLpZjeY6HHA9ADyR/fwxu/8X7hkev2bGz9uivSjMjnKpo+7BoW1yUTRZtlT5UKZPVlOx0n+0WYIDnAxzl5yg3CDZj1yH2wowvPvm5ZWS0Kb6vVRktCkcvHrFLChc37enEPM1hgQm14MbktZP7GVT99er+RtUAo2KgSTbAHDfYGJdjf6c22M2xHMfz4DY87q+I3B88esFACO28dvRXCzJEPGKj7dJomyzKKh2s78HDhfkg4IKACvBBPx/w8O4ucON867HJy9/+5fzUxyvUA8yyaJss0q6IsisGmuWxiwuXNO/txDwHMAZcM25I2TC5nzGeFJMm0qrsY1cMsMgeNsqynO/WB7oRw3GAh/w/sb4KgwFvbjuuHvnl/PQIhzLKdgce8pqSnZ6zIh5sGI8AH/Azbi/T7qZadrcfHl3z0q8/iX9MJ+ln7cFjgEkWs7hwacvnHZjjEcYINOOG1I1T+loSxBLfx66KcCj7WxSPGBVZVX9qDLgww7MIINFcv11v3K/j+yAf38Dj8C/mp4vjR0y0PS4sHw9VyuQLi3d5Trswz/AMDYMUpmjMBDmvn3X5gLsBda5p2iuZn/6biuEDTKpIa3ykTTPAqJTWFK5o3NtNBmiMgdAoNKesf6GfRdPPEt/XktDHrolwqPtZlY8ZlJnVf2oW8WAE0jXur5rqhf/BxEPykD5OvrBgl+ekCzMMYCgUbGO7v7p81M173bzXy3ldnKcOtFqOL/39B/GPGZP7mRKJG9GollUXrmzY64IcJPoKN6LWlHUvDbCo+lqJ5Rh2Ow4wD3+8YvTYhTMaQy2Yo4P4BzwQuqmu4I6r35QPyUP6GPmi3F3eoy5MsXwoiIJX/c1vVc8v/3xFLd/RzbkCjMcLPU24Vb/f/vOZSU/rUgcRiy9RWV2ypuFzLwQIYMzjRnQjZd0rDxsV/S2KCIciokoZaVc/bE55rDR15KLXrrFNPKA9P+BBmCI3t3vhEfeQfph8UfYu3yEXDrJ8KASpK4HmSfaPRupesZ/cfBW0dAkuD/a1sq3duD1/1bv/8UnaT8pHP1k+XGUvWVf3ZRAKQg8ebSnrpj1mUAw0K/o45BFV8ii76lFzyuMLUkctnHGZb6UR4/0Bj2/BY9jN8SOMR9Yu30EX9rN8iAGhK4HmIsf7//p++kjLK2ubvryGO9qw1yu4g1TbSdxUuPzd/5yb8au5I1SWkrW1+wIijwED3CS0p66f/rhePsgs72NXRDjlUXblY+aUJxeMGF3z1kX+RkhgfT/g8S14xETbJeJ4ficegAZcqNbfXFT9/s8W5DzzSWbWtpmbqFNXcYcLu1iuuwG3feY+PtY+7b9mjo43jV91bV+XgMl8l8eN8MbwtS8/WakcbFJG2ZQRTnm0Tf6IWfVkuTKtesY5ri1IFg5vn37/89nn3z6/6p3v3oEHAxiBCdV7m/Nr3nuiPOvRBWk/1ecW7Zi/zX28Abf7sNuH3fXCjfVNn48xThldOWnd5f2dCDM8xhyuB83Ja178UYXmYaM62qqKcCiibbKHzXFPVQ5Lr3rjDNfhxzxzE48HYZb1IMyvDv1i/tgIhzzKNuymfEge1seoFubu9hzxYioEWEzTjZ7mvEXvPlaR/nDZiMdLR/96XvqLOxYc4K+04k5O8PqRqxG3LTy17hXHeztO7Q8xpJkxC+tBQ9KaqT/SaR4xaPpa1REORZRd+pA57il9bIbzzVNchw9DDhP+XFhkw32ld/b59z+473jwO64d+MWC0REOaZR9yM3xQ/JIZZymWrvXfdwvMAHEYZpp9DRnL3nrEf2owbrkh8tTnyob+dvy9LnHF50T6nCwU+Dcfuyp4xp3nd575tJ5TGHEYMzx9bAuae3km3ioIpyKPg7pIIvkCb0ky/H2abbLjxH8AY/bxg9+x7Wvf7EgNcIZE2V/lsiHVRFllT1aIU2oKvyi+2QQsT6BEximzteYufStwcaUAcQtKOtvUj9ZkSSvzFvXsJP1NPJsNwv8FPB7qC6/1y2EECTywdWB60lrJj1ukA80y/s4FBHV8ginfIBF9phBprW+c4HuCuEeFvYP8hGe8HLba7/+1YLUCEdMpOMWHo/ppInOwn1dJynIujEHuNDVQP3Y5W8MNA3vZ1D2NcujxNXDZ+bGp5Tn7br+2Q22McC7WM7DMj6WCfAsSxxYLH0dXE9cPflhk6y/RS7aH8QKGWBRPGaQa63vXAp1MSRoAf6gr3rtD3779f3PzE+NsMdEOP/QKx9PlMtS7MX7O06zHHBjjueDV4N1Y1a8PsA8PNqoiDbJ+pplA8zSh/WqH5UlDFuQsdd7tJNr5VkXz/g41s+zFM8xmKWuc9cTVz4/2KToZ5X3sSsjqpQRDvUAU9ITuhF59ukX2PoQFkkNhEJPqvTD+MFvqz/0L/NGRdriIpzPRd3UV0+WS0faCg+1nwQcy/IMz/svhq6nLX+9vzkl2qiMNin6mmV9LdJoi6qPNf7fKseMdb54lb3m59v9wEvzPsQEME1hJlDL1qYsnDrYrO5vVRFnolPdx64ZZEx6Spea65h+nqujMCVgHv8z4yEIZDJzcwNbmw7/25zRfS2yCOewSAcZP6Ktsid10lRH4cHOUzwIYSZEC/4T8ProVTP6W1OjTaq+FqKy+lpkUVZFf5Pq6crU35aNnbxl5iF8rRl3e7ALsB5M+QXOe4m7nrX45cEWzQCrJtquiXDGR9oTHzam/qR8tNb52nlQF8BBKLBYZKn+k853e/GAEPI8t6X52G9mjelvVhBeTxgPi+wRg1RWnftp10EfDiI+0I679uBLipUv97ekRpnV0RZVtEURbZGJe+UgQ+KPdSP+c376B0erjuHGBtzuF7p4ptsHO07g6wnOSQNMCf3M8VHW+Ah7QrQt+VHDiJ+Vjc4T8fDjAMD/9HiEIeF5nmGZTS3H/8+stIFmZUR1TKQjNtomjbTH9bPF/cSgfveQ4QKob2WajvEX5tSt+nHlyAGm5GiCh5IgYZVFW+SRVkWkTTPImPx0ecofTfl/Ou7YSR2txXVtfN2F0Dnd9dXP6NP6GRKiTPER5vg+1sS+luGPVY781fy0fMfrF/kGHw5wmBUwifX555WPXjxYltnjuphim/qTMvnD+j8+ZHl2gHVIhHNoRFXMQLP0v0xjp38xv/R0zewLVb83ZjytHz5Ir+lvUvU1K/uaFURlmeVRFnmUTdXPonnUnPi4Lv43FSNLtr9bcabacWn56/vm/7py1EOVSSIeCRG2pAhHcn9T6pPzR/2uVPvu+tI6dMODvbRA84gH8J9+/RwQ9jTfIgRWXt01Zdvb/zF32M/LnnvcMLSfLSbSETfAIn+qIv5npUm/KIv/RVnSU6XqR3TKgXplP5Oir0VBKFi9xarsZ1UOsCkHWpWPGlU/L9P8Znb8r2epf1Ka8JgxabAxcZAhcYAxuY8lpa859eny0TLLlPe/dO5rPd4EOlzQH+RDLGC5m3yG+7swdR/s814nBNEPPBY47GXoS+w1/VFr/vpp/6ZLfrJC/Uil4lGd6pHK+EGmxEFWzSALEYtokyLKrIi0KCOtvUUeaZVH2cVC3OmKCKdqsEXzlF7zpDHxMWvyE6bkJ43JT5lGPrwg8fHZyb/X5T2/ee7yizuusS2d0NMBPF4YojiG4Vme58mq7f1eKLyfeCCEMI+xjxTEcy3oxjbX4Q9PL4mrmfLjWQk/npc0qDI5wj48oiY+olod4VRF2JWk2G4vigjbTbJolSyiRh6xUB1RrYmojo+oSYpyJj9uHP4zfeqv9Gk/WzAqY8Vb1nPrTwUud7EdNO9lUCiIWQpyDM9xHMdzHOT/ufEQBAFDEnDJC4jC0ItBK6Yvgq6dTcc/2uOMKdU+s2DUE4YREfbEiJrEiKqECKc6wq7qE+bs3toTfmKUXRbtUPS1KwlsNZqIxYkRi4f3rRr9S1PuUzPiZRWF+iOLj3Sc6mBvBIGLAl4OUJBnSTgcz7M84HkIOQh5REJ57ysl7n7KR6/iAkRpCTQWKCz4MOjEoctc+9YbBwqXzfi9LvMxfXKkTjnArOlvVfezqqPvKCqRWE0oP/3sCnEIUfW1a6KcyQOtqT+tGPPM28Pf2W3e6z9+jr3WyXdQvJsBfhaGeMACwBEFRYhwCPFiAQIi8ev3cwnkgcCDTLd6C3EnQShwlOCu42tXXdr4++qCvu9LH5qneVivGWTS9LNoCJPaSvbRNjXBwy6Jtkv72uX97MrBNs1PrSk/nZfw8/dU41a9t6vlYAvu7MYeL/bwbBCxNIAsEDiIeAiRAMiybk95MIJwHwg8erKPhHOQIIQhJGGxkOaRt51uPI7b3zxg+8Wfk5+Yp35UrxloUUfZiPMj0qaKsqn7OJQRTmlklayf6Ch8Qq/+6ccy+YKM5de3XuLrurl2BvpoIchACjEhgeNIXgESnC4IhKAlFoiFHicvFoT7HML2QODRq7huAoPEMH6RlECGl5ALdu8G53LWv/vLT5IfL1U/ZI4fYBWLJYF4QWrIUD+gQvVr06gYY/aco/YT3MU24QaF3RBRCAR5SLGQ4niajBRIIPEFIgY9eCAMMYYCKeHUDr31+fsfPFh43Hz+Xu0FRWc44DDbjLtOwQbjmdUZS6f/zpD5dFnykxVJT+iSH61MHLgg4UfzRg0zjJ+y8ZOdncebYKeP9wBMI8wIiEGQ5mGIRTQNWRYCDonxHrfhISAscrXIngCD72f47YOJx01cBKJaxBU8iAWOQ6EO6DnkvTj/0JLEmhf/ZcGoX85N/eUnSc98kJFR9eGiC/vOBtoDPMQhhAMQswBhTkAcgixELI8IGCxEHMSADFBER/UUkrjpVvkBj97W/+ZBWFDCUoIwgjziPYhqFTyft534cEtloeWV8TUz7FtXN1BeP0YBAFgRQcxhTGauUJzAkvkTEHie/DtRVkRfiQNGLx6EWxoWDjEVzTfr8Xc784DLR7gdSBuHjwCCNGL9KNgFPM1M+8HGQ8daz7gCLpaYETyDAIMhjRGNES+Iaxpht74AIEnFRKJ5IQlO6ylk9BalBIoiEh4//m5Nf88f+ofA41bNEYI8GQZCpAghRvCGgD/EhRhArDsWQVaALEbsnXj0AnDPAwKJOJKLk6sf5le3Wvu7HCEB8gjQENAQ0gAGIaAA5IhKgpBDkPvueJDgcwhJKCcMS0l4uvVdKvG3u+YfTT4EAQiIFSAnAA5zjMCxAgMEvoewgiAvEE11h7IiWcxu6ShyfBMJiHlBLOI896Y5cj/Nc+Fb8YBYCKeT+F59geSDEQ3ee/5X2AQWpzaINCwp3/XpeyZEIh4c0UiAIVRPLkQSKYpep9uGb9Ev2OsG4e+FBxLnWbxAFqNYgge5SEx/hhBJG0FKuIZAPO6dgt/zyW4/SYJUv/tz3f6fgnAvPMJpogAWGLFle20k4tiBhMh31y16P2JEXA+MmPFTPCnqZXFEFW6mMgQ9MIt5MjB3d9XDc1BiJN/S4zfnWLfy74k3gSzmQ5inMc+Fw5XFlJYkVxMEZCZFfFIcElgImXvhEVZWgJAZBMJnEAf6MPcHis8trgQI4h3InnhXxEKeP3zD3ge/8yAM5G0R7SL58c5rvvXTPeQjnHyQw5jCmBVdsGEzCXOQsJT521NG3rpvGDZOgH4MghhyN2cyACKy9IYQEMhiB0/QAuQumAWYBpgBAit2Z7F3QqI0BHE+Ckh2OCwOCYjYEcRkD0MiNh7iOcgESVZLxo95kmAUQHJXABDxnJOhHQoMj0IcDBG/7c1GJFMpgSTDujl4iOCSxH5i1RAnCBwUWIQYIoGQ4WCQFiiOoM5zAs8LgCdTNSJO4Y5yqwlIV4XidJoDiIUCaSkCIxSIy/K26/7C4V/CI4CFlqC33e/1c2wgFAIcB1hWYHnhXusEYgURC4Ebs+2QukH7PRxNC5CGHAM50ZUKWQwZkiCMpTEdwAGv4HHBjm7Q4eLdLj7ohYwfAwoLQYy8iOkGAR8OBTEnUtBJ23CisU70DGIAH2J4qo33HGi7eLCztoX1cGIYIAQcyzNBNuCiujupLi/wBVEoBBlOzHsVbkeeNJV4dY/rhEeYYxDlZVxuptvNuryCj8EhMnMGlF/wtQvu68HWVqbLi5kgSW0KeIJoeBzqbVuiAAHmeJJjiw6ggIvravXdaPV2+LlQCLAcAvA7KOdvwUMg3aMZe3c3nzB8vqz8s0UVe5buqj/WwnpYhkYhGrAsf+eCMyZKAgZ5po7qWHdy97y1ZuMGx1eXDnaw3RRmWGJdQwajAObc2H+m48LG49tXHVq35NCyxYcWLzy0tPrw8uqjq2uOr685uan65MaaY2sXH1q54uDqTSe2t4AOD6aCYi4xIpsYQIGlAdUa6lp5Ylex5Z1i28e2fRvaIRXAfACDVsZ9rOncyq82OHcs23v5QH3whg/TNMml2KNnehY7SBosyGPIYs6PA6daz609uGXF1xtWHdryZeOxBr49hAMhHDjlvrrmwu53ls+v3LnoQOv5OrrTSx6HKMTwIBPu+IhIP89g1odDTWzHgaZjlVvMus1G266qk64zHbgbiLq+F71vO7gnHiT5kQf7t1z9vGTR28ryfFlplkynTTS9sPDYTk/IxQd8NEsxgL21ooaQwBH56WS8609+mjNvUvz7Y1M/zpnsfONA4+EQDnACw0PAIhTETF2g0bTTodVNzSgfP6ZMO7o8a0RFRoo+I8mQFW/KVplzFZaceFPW2LKcjJmZ40sn7an/shO7/DjIED85RCSDHBcQQl81nBlnezdBPzHJMKPA8taXzec6MdeJwRetZ15fNDNrzsS02RO1ZS9XH91EYYrBHBCIlwQKkIeAI0tQPICExOjBwS8aDr1ufz937uSMmeOz502Z4nh3/eU9bdjVib1ztptHLpgwUjd5dPkLhZa3a75cW+9pCgo0K5AbihkAyeAoEEcMG8L0JdBq2L+iwPjK8Fk5I+fljlmQ++GOmZfglW8D4K7z38SDjGY8Zuroxnm7rSmm8TKrVmLPUthzkqyTCqwz9l78ykV3+UGQgjSNeBb2LDpDILA8aA51le40xX8yRlaRJtNnJxiLV5zd1I1dHKYRCwAD/Jz/QN3+yTXTpYYstTVXY83S2NI1jtEa5xh1VZqiOl1eky5ZmCFZmB67MGvYIu3QmoK31n18lrrsxz5OYET/B6HbUjy74dieXMvrMmtRjG1smmnqikNbPJjrwPzaa1/m2aepjMUa44SRlVOnrfyEyC1iRTwQJKHQNA8pYr4gOoBDBzpOTl7yrrQ8d6i1YJg5P95YMrKspHSXrZ5rb8LdLy96L1lXrDaMV5smqw1Tcm2vV3+9uiF0IyBQLBFZngxsiIN8kMOBVrbFeGJVsv15pb5IZc5PchQm6rOnrHj5DHPmrnb/to/3wAORBNBMLVM/c1dFgrFQZsmV2rKktiylpXCkaeK0mg++bjzSjdwBFKQQQ5OhU1xhA5iBsIntXLBXryobIbOlSxw5UnvB4kubm3EnjWme4xmKavA1GHcZUytzh9kzJPZsqS1LYcnU2LKSrLlJ1txEa26CLVflyJVW5wxbqP3jooIh1SWasnzn8TXt5CYhgMggKSDMsmDL4T1a63SJI3dYdUqaadyGgxsZge3C3MqLO8dYJ8TZcqT2ooSykhcWf8wKfp6YKUCc4zK8EORhgEe+IPZeCNW+tW62pjw/1qb9r+qc31flSk15KeXaj9bNq6dam2H3dOc7KbpCuWGc1DROZirRGMYV2F+tOriqGbSFSEZGoglpHKSguy5wreboiszqaXHmolhLYaxVG+8oTq3QTlv0+rXQ/0A+ICYczWuh2o8+LY03aOWWPJk1O9aZPaxKK7ePH6mf+OeN5RdunPMgdxCHGMSKeJBnpZHQyHcu+LxSVTZCakuT2LOkNu2iixsbcUcAhyjEdobcO+v2FTmmqk2ZsY5MqT1PYyssXDFjysoPXl4+K1xeWv7x1FUfFK54fbhjotxcKDWXSCvzc6qm7e443Ik9jMByZLYiMAzYcnCv1vqKxJk+rCY13ZK/6dBGFjEdmFl5flu6rVjiSJc68xJ1RS8u+SgkBDiB5sUJIsQ0LwRZFAhi79nA5Y936kdUFmmMeXH2nN8tzP7v6hyJJSepPOdPa+fUBVvakde2r2aUYZy0sijOUBxnKpCYC9SG4hzzSzWHV7ahGzQO+rDXLbgu+y47DywucBC5jLMWxNoKFPaiNOvErDmFzu1mL9f2bQJx1/k75EM0FQAQUBBztcHaD7fP1xjzFASPnBhn7h8WaodUj5PbxqUZp1auM112Xw0Snc4yAiCTRAGHbuGRKrOmSa2ZMmvu4gsbGoV2Hw65MX0u1PTOltLhRq3cmh1rz4kx5pVs/fP2pv37b5w7cONKT2m7/FXH2U0tX766eW6yfpzcUCIxFSkMJS+v/vgCXc8INCPwnID8PLf22JZsx2RJ1diYmjGjbcWrj20MYrpToFed3ZplK5I40iTOHBGPj/3Qy4p4IEzW6etpgnoAABuzSURBVAEKhnCgHjRV7qtJNU+WmbVSa94wR87vRTzirDkJ5TlvrZl5PdjYgT2XuNo3tn+iLhsv1ZfEmPOH2vJirAUqQ3G65cVl+5Z3Cu2duKuOqa8+uCzX/ILGVCJ1jhvmLCR4mArHfJD1kfP9S01Haa7zbkvrLhxufuzBI+wGDe95gcyCGgJ1H+8o1Zi0Ckue3JorsecMrSp4rqroD2atrLIwt+IF697FjXRbEDM08VsgBuAgwg1cx4K9FeoFqQrzWLklV2EuXnp+UyNu78bBGziw6PKnIwzj1UatxJQtM+dl1ry0om5XC9/h4f1envVD3od4H+I8ONSMuzfVf5Ff9apcXxRjLtRUFmeXPb/q1DYX8NICQxHOQ92ys1XZzmKFPUtuKxhjmbr05BYPZrsFes2ZrbmWIoljdJwjK1FX9GrNxy7eRQshDnMCwYOiBFcbbq0+sjLH+pLKVBxrz49x5MQ4coY4c5+rypPYtAm63DfXzawNNXVhbxvuPOe99vF2i2J2gcyYP8ymHWbLj7MUqA0FuWWTTF9WnUfXKg8vVC2aGmstinMWD60uGurIV5gL1LOzSqtmXmo46ae6IKJFa/+v2+134NETIYOQD/ON/vpZu0o1ZoKH0qyVW7QJNRPI4KnPi9HlKUoLsipeWHJoYxvv8qMQRTx8OACFerZ93m6den6qyjRWbcrRGAsXnV1/Hd9ow75a3PnS2o8Tygs1+ny1IS9Jp529S3c+cNkN3AE+EOTZEORoxNOIDwmMG/oahBsL9toS9eOfMxbGGAuTSye8s3TOufZLXuAKYm83bl99fE2hacrwyoLkiom5Fa+sObbFK4S8mFl7emueuVDiGBFjH5uoK3y1ZlYn52IwzRFrlmVwsJFvWn5uU77z1SR9sdpQoDZplaacREeBwpIbZ9fGWbXq8tzX131cS9V3kSlWVydyH2m/MPtTS3JFgdScG2fSyox5yso8VWleiq7k+XXvZS1+RekYF2cvinMWxTkLFJZ8zdysV51v1XacD/EuHlGQGNa9fpebsnCvv9/AA0AWIS8Gzb6G2TvL1RaChMJcoDIVfHTc+sLWP2sWFEh0BUMqtfKywgmOt3df2++CHjKmQeJrrWfb539WqZk3Wm3MTDTkplQWVp1ZcwW31OPO5ac2pxknagz58Xptii5/guWlz+s+d4OOAOcJclSAYwOAoyAfgjwN2RAIeJHrWNfpacs+0la9Vmif9oLutXcq3tn4+cZupptCwRDwn7h64j3n3ImmtyaY3nzD9N6XJ/YGmYBfYNaf2ZZP8EiJsY8J4+HGARozLBFluh13fdq0b8KydxTmYoW5IFmfP6a8qMjxYvlJe2pljsqSF2PWKsq009fNvB645kadXbjbB/1uGDjlvvjBlk8SDFqJPleqz5UYcqWGXLk+V2nSKq2FMkeh3FGotBdqzAWJ87PeWfHRRc85Bnk4FOSIwyZsrvx1I/0uPAAkVgLwYrbFWz97Z4XKWiS1FcgshQpzUfmxqk+9B15b82dVaf7vTNo/VubJ5uVPX/TRWdfFIPbTMBiAgXq2df5nBtW8sTJzroxgWbjq5Nom2HiCujje+prMqFWY8uL1+WPKig17rI3Bawzn5hkqyDIunu2GrAeyAchSAhOElA/63NjfjLtbcadb6GShh0EeP9lTfCiIGYZhmaaQ+zzbfom70RxqYZhungl6MbPm3LZsa0GcY3iMfXQYj27BT2OawSEvdh9znf7Tpk+Gm8cNs+fE2nKTdAVT7G/uat637OKaNF222pIz1JonL9e+sm5mnb/Wh1wBHKAQFUSUG7uOdx95Z9OfhxsK5PrcWFPuUHN2jCUn1pob49TGOvNltvx4U0FKufbVpW8fbz9MYxfDezkY4shyAPF43kse7j73TTw4VmC9mGr21c/eYVBaxsfZiuOsRXHW4oVHll7B9bubv5xcPSOmonCosUhmHp9aMXHWZl1d6HoAtgdgdx3XOP8zo3J+VqxVG2fNj7MVbjy9/gZX59i3ZPis/N9Wa2Ot+Rp94ZSlb+9t+cqLOznWEwx4mzzth9uvfNV+YV/rua+bTx1oPXWk/fTRjrOH204dbD15pO3kiRunTrWeOXnj9MmWU3Utl1lPNx/wdfpd532tX7mvHnRdPN9+weNtDYX83ZheeWH7WHtBjH14nH1Mgq5g+sKZHdBNk7mp76r30ieby0aWFajMeTHOLIk5J79qxqZrX11lm9dd3jxClykxZwyz5Ip4zKr31QWglxEYhsRaUUHs9eD2k54j722bk2QqijPnDbFkD7XmDLXlDHHmDXNq5ZaCFNO4GRs/Pug+5EItDNfJsD4GEsOZJ87N74kHcflBACDHCYxfxGPOp2alZVKsrSTWWhxrLVn31fJ20NTCNmw5s63ENF1dPm6ooSiusjDDNHXxsRX1oct+3F7H1X2yw6BeoI2x5sdZC+JshevObrjBNUw3zMiumPzfzjAeBe/vKj/HXnHDDprtvtxytmy9Tls5Nc04aYRxQmpl0QidNr2yIMdQklNZlFVRmFlZmKkvyjRMyK6cXDR/qmOTo8NT72Hbt57a8YLzg0zjtDzD9Jf1b+05vtfLUV2YCeMhsaVKbGkJFQUvLfmoHXTQ2N9ONdTsdmbpx8eb8mId2TJ7doZzSvXJTfXA28C51pzfllyeGWtOF/HIf2XdrEZvXZD3MpBjiWOfDmJfAHd24JYtHbvzlk+Tm7Ux9rxh9pxhdjIRGObUxhlyc5ZM29y5pwk3+oR2lnWzbIAGNA2I++574yEuFxDCAEei76hGX+OcbVa1aVKctSTWXBRrLt76xQov28LwnZ5g8/pD63ON0+JME561FEv1hdmGiTVfVXfi1mvctbk79AmlBRJzvsSSL7EVrDy7/gbb4NxVk75g/HN2rcSi1RjyZ2yZc9J/wQM7QvQNy3Z92tz0JN1YqWn0H+0j/+BIHWJPlVpSlJYRGssojWWU2jJKbhkpdWYp7QXjHK9/evlzF2xvRy3LT6/Nsk7V6AvkFfkZpVNXHtrmQkw3Zlaf355hK5JbR0otYxMNhc8ve79daO8CNzZ9tXpK6dR4U0GcPfe3CzNHVZXYji6uR+2dHNXO+led2RpfljHMPHaoOUdelv/K2llNnjqK94Z4lkEsQ3whfj/uuMRfMJ6oSa+ZqjTnxzi1Q505Qx3Zz1XlDnPmS83aFMuEssPW08xJN2pjOS/H0RToMZm/Y7AP0VeiQ5+8CggQZzLgBC6IQ/W+hjnbTAmGiVJTSayxINZQsHb/ajfo4DkvAr7mYEPF5wuHW1961jpuqLUovjxfWz5x48WtR0NnZ32mT1qgVRrzZeZCuXnckrMbWtnGy97LE2yvDzXnycxajb6w2Pn6hgs7OtjWENv2p1UfJs1LS6pMk5pG/bct5be2pN/Zkn5vT3rOnhJnH620pmlsaRLrqOcW5cmWTtHtqaoNNvk5fxdwrzy1Ocs6SW1M/709I9k4admxHR4BejG/9vz2HFuxyjJGak5PNhe/uOydWtiw7eKOidbpicYSqa1Ibi5OrRhXsUtfx151CZ5uJuimg6vPbFWXZTxnSR9izg3j0eypD/F+mmMBBwFkg9h7lbloOVadZZ+UYNAqrHkxzryh1blDq3KHEDy0cWattDxjjElbud9wOXCREgI0IpNGhpC+7nix1d2Dxm2fb+LRs4RJ3l7CCXxQCF33NczeakqumCgzFMdW5sdWapceXdMhdALeL3B+P3If7jw7Y2OZ2jo5zlKsMOQnlWlzTM8bTi/7096K+NI8jTFfbipSmsYtOrexjWvyYHfNuU1xJq3CmK/WF42omPjh5orTrvPduGv9+U/H219L15WMLM9PKsuNL8tUl6erKtKUhjSZOU1hz1RaMpX27BhHQdrat/fWHe4MufgQH2Do9cd3aU2TEvSj/09NWoJl8orjuwMIBzHccO5TrX28xjxWbs4cbi2euvzNtbU7JjheTTKUyKxFSkvxqMoJH6795HTnCR/u8mKfD3F+iuChLM/4ozXjOctNPLz1NB+gOZblEA2YeqrJfmhhtnNKol6bQOZUeVJ7rsyRJ3XkxtlzY215MeY8iSFLZUjPtBVVHVlWR7cFMAjybNilJK6a/PUx5BYe5L1AZI2BqKwQDNV6G2ZvMSfrJin0JZLK/Dhd3hKCRzcAPswGBS7g4lyfNx5+aeXMJPMEibmIDPu6vJFVL+SunqHQaxVmrTgrK6m+tKUTtnmx5xisK9r8nqJSq6osUpWPG2N8uerExjrYVc91f3n91NbTX208vnvj0c82HP1007GNW06uWXF66fhVr8TYMv/bkR3j1KpNJfMOL7kKO/18CDIwwLLrj3+WH8Zj4Zhky8RVx/cEBUxhYdO5TwttExJNGUpTVpKlMLvm+eLF09W6PIm1WGYtSa0o+dPKOV9fP9AF2oPYF8QMhaE/GFx9ertCl/UHa8azPXjMbvE20ByRjyAHav1t1YfXax0vafTaeAPBI9GcN9I5QVWWMaJ6fGxZepxBO8xQMNSYO8yaITWOzba+UH1ofQPV5udCFM8zAHLEP///ggfgBZKv8JooH4kVE6XGEokxf2h5ThgPCPyYpTBLsyDYDrq21H6eZX1JYi4a4iyJsRXGGfOkVq3EmiO15UmsBTJLyZIrW7tQhwd6anG39fqGVMskub44trJIqiuesmLmQc/VdkR1MVRXkHZRtIdhgyRaycdQLadqv5i06JVhVdr/rNEOcxRnV7+2z3++k0yTIMcjP9eLx8jf1oxMNZesPLHLi7EXg/XntmvtE+LNGXJLhtKak2DPl1pyYm15QxxFamPJVNNrG45taQw0eoEngKkQsUuQLxhYfXq7Up/zR3vmc9Y8RXn+tHUz2711HPBQkG6iPY4jWzKMr2gMRTJLvsSarzBrk835CXOzXljx5uLmLS9u/khdUSjRFw0x5z9rzxxqGyuvzMsyvODYvfRGqDMgLhaRVfnvsH1TPniCB/Jd81+bu8WQUDk+xlIUYyv8XXnm0iNrO1A3IAuyIbKQieig4K/nmpdc2DTSMlFhLZRYC2UWrYQ8fHYsEeH8WFvJuovbXKDDL/g6sfcEuPr61rmyioJh5qI4Y7FmXrH18OpG1NmFfF2Y9mDOizkXMdm8Te6r1jW6tLLxsebxf7QUxxsnVB5a0Y6DAbJmDhiAvIBdf0KUD8OIeMOIMcailSc/dWHQLtArzm/NrhqvsKXF2dIkjoyh1VnPVWXFOPJUpuJC+6trD29sZdr8QoD4p4k3jOUF6Av4V5/erjZqn3VkD7HmKXT509fP6vBeD8GuZv6G5dCq0fppqooJclNBrC0/zlEcb56QWjb+3Q2z9wdOXMANe93H3ttcNkI3TmUqirXlxtgy48zZSn1uXuXkqt1Lm72dHEC3MwL+Ai5348FjHgg0DX3X/LVzt+g1+vFDrEVDbAW/rchccXh9J3LzKIgRAxHDIppBlBu6a/nGDzbPS9YVqC0FSnOu1JIVZ8uMdeQMc+QPtZdsOr+tm28PCn4f9jaj9o3X96aZXpYaxkmNxYllRRNt0/a27bsAr1zC1y/jugu4/jyuOwOvrj6/cZz5lfjykjjDhHjjpEzdixfoJi8OifRDyCDsgdy62/BI1xeuPLm9C/OtmFpyfkt61TipbdRQ+8gY55ihVWNjHDkqkzbH+Lx937IGujWAmaDABhFNI4ZDZI0rSAXWndmhMRY958wfai9QVhS8tmFWY+BaF+7c2Xw4+ZMJiaYpisoipblIbi1UmookH6TPWPrx2eD5G7jNg6lW3HWk7cRH6xeM0k1QGgskltxYS47EnJ2o0xboXlry+YauUOB74xFe3xdTyzMM9Nf66uZtNsfrxw2x5D1rzv6DMWvVwY1d0MMhipDGyXICy5MQjZCX72rADW9tnJVoKlCaiXM+zp4Z68ge5sgbai/cdH6ri2+nsJ9AAr3Xgo2lexZpyifKjcXJlUVpZXkZuuwxuvSRurSU0lGJC0YnzB+tWZCm1GVKDVqJsVhqGJcwq2jNqR2dbDfAgMMCKwgswl7Arz/xWa55kso4UmMckaEvXnFiVydGbZheen5Lmr04zjLiOWvKMMfIGMdolTk33ThuwXbDFarejYMBxFEQhCDLQJYn7giOZajNZ3erDeOecxTG2IvUlUVvrp9zlr5yFd+Yvq40yfC8xjJBbS5WmQvjTcXJ8wv+tHLOyY7TfqGLxh4GUzSi3GzXwfpD762dl2KaJDMVSizaOGuO3JSXqhv/xpIFV3zt38kaDPN9bhJqSJ4bwnuBHAeo697GeZtsw3UFcmOaxDBKYhi9Zv+WbuBjCRi8QDgNHIQsggyAgRB2XQ1cnLD0jSRTgcKaLbNlkr0pR2rM33p2s5dvpwQvDQM0CPqBZ3/toUnOt+SVBQn6vOSKsSnGUWMWZo6oGZtSlZZUNTbRka52ZMpsGbHmrFh9rspQ/Ibl3eZgEw39EHEcIo59DuEggJtO7smyTYmxjVIYR401TFh95osuDDtwaPWFT7OsE2WG0XHmURLbaLklPcVU+O7GmafdZwI4SGGGFgBDuO4cB8mapQA4jqV2nNqTsWCSylAst5SkVo5/f8P8c0ztRdySYXwl3jBBbS1RW4n0jyzN//PKeSfbz7mgmxX8ENOQrCKzHAz4QNfJ9tN/3lQ+xjhZbSiWmPOl5oIE3bhxprcONJwji5rfYSP6KrzdJKuRBWYe0E2B5opPHaM/yU+cM3pEWfqIstH7Lhxx80EGcVDksSGyaMwjQtKkIAiy0PNV+9FXVn+YYh6faCoYoS8aUV6cbnr+y0t7KdQdQl4WhDjIsDDY7W+p2bcsVT8xWVeYUpkzwjQ2xZyWYBydYBqbYM7QmDIVhkxVZXaCLjexvDDN+uKBU3uDfBcLKLJCDxGHMI8wg/ChxjMlNdOl5lEq/Zh880tft172CsAHggebj72x/MMUnTahMjfRkJtqKH5+xdtfdR704W4GBXhEyEE8Im9HIv0JMBiwPEcdvXLsbcv7GeWTUyvHZy+YaNvlbKSb6lHLy4veT9GNTzaNTzQVJZtLPlw392T9iS7e7UcUQzgS4ltABY4XKAb5fFz36ZaTM9eVpVdO1VQUaSqLR5VNeGvRzDpf8/fG4yabiPA3IGB9yP9V84l5W8xvVL8/3fy6cYepke7wwpD4egaRg0XYRmRJX4AksoKHdCfn+ar1zJzPal5bXfpq1az3Fs1f/PX6Wk99AAeCxM3JcojwBwICc7z14ryNtjcXfzJj+ew3V3/4xpoPpq98f9qqj6atnvnyqlkvrJj10rJZry6Z/f7KctvnK1tDbRTy05BhAc8BGGaB0UBoDnXZvqieUv385IUv6XbYO+gAZIAQCroCbbsu7J27zfinjQve21Q6f4/jVOhil9DOch6BDYqv7hRJYZDwTMjaNOAQT7d4Wjaf3Pnh+rJ318w2b7NdaT7LMC4f27ntzJ63ls2f4Hjn+UUfzt9ddbDjdDvX5eV9FKQZRBbiRBIj4AWWFSgaed10+5kbZ/WfVb2w9P1ix4w3aj7cdGBjkHeL61E3+/63/70lH73XkFweAIQE7gYOXKFunGq5eKbpQgfrCggMRaJaeJ64ucQE21Ck8UPyxl+BF1gAXDxbxwePdTQdun7pUltjN+sPCCwlsCHi5iR8FAbBgAC7+NBVd/uZjoZTXXVn3NdOuWuPdV896qo94qk76K7f3113qLP+RHvdxe7mpmCXB1JBSDHk3wnTjbyKCwgUgH4YaqebD1zddah1fyPVzHM8DvI4GESMPwD9jUzHlVDLlVBrM3YTfzvnIy7BUIhUQeTXiT0JYEIR4RFkAtDXijqvcI31oNUH3YgPYNoP6IAH+M901289u/+L2tN1dHcXDnpRMAgIpYrES5MGwITzQt4uzXCI4mGQhoFWruNg55nNF/cerj8WYDqxEMIEuL++3QsPRGh1rABpAdCQZyBPgpMQ8RqQHgrFt6HdTN0VXlIUF7IQEplyFABBgETaoUDCkgj/kFBPRDzIm2g5suTO0QjQApk40yTVIWAJq1B8KwoPIEsMqCACAcAGARMCDC3QIhuBhNWIVHaRdUvEM8QiN8BBDocA4ATyTnQKsiSFMgWILISAQJE6AI4Y2QxiaUjGDp5wPwm/lKhekklG4GhCnWK9iGHI6EimDgJHAZ4m/QALFIIhJDCQ3IrlGY6lSYYNjheI9iTMSSAgTgAsYU1y5HHFl1D7MFmUFJMe3EYf/Yug3AMPQici7FfSbUgKBUwMmTCBHITfWnInGL1rvWGXWS9CABBRInUOFxJLyfEoxAs0IGRRnhdfLsuL4bQQ8Sj8qlmexxyHeI4oN8JfIcmQWYGBmEVhQgLpkYTBKgbHQvJ+NrHwJC0MsYo4SPKRkJkT6R8kOg3whJZDXvTBMzwIQUATTUPouISpS2Sb8LK5AOYZ8bXQAiA6gkUsS8jakDQBFn+P5PRFiLwvhEUsh1kek3oRFmw4OI6wVMVbiw9FTMBbQbzfLfLq3niEAQi3bC+cPZz+HlnoReHWQa8LswcS8TUOPKHohAsRDh4xRLERTls4jI+IO5F4dJNdJjYeAmSk4CBHWpasH5BRQ+Tn8iLzmXQTQWwiwqMlB5CQi4lxxxJBDI805KdJSwFAKJ48z/GA4UnsCNH8JFUJIdgSPDgykyYQkWU88SThaZE3RJM+AsN4CGIvIAxsIHCcwPHi+i8JUiScbCB2K8IPI25ZsZJQuFlJJMbvottI4r2tetfB98PjVtt/+9EtLMVQ7zApXNyTJPeA0Pq4u/Ag/GmCh+hCI41HjgECZBaEyNuEyPWiargZ/CeEH/W2PQqjFb65yF0lhNmeaEERc1G4yegjRlGRlu/Fg3i1CWQkfIQEHYjXkyGhBw+BIBLGg/CxSQ0JTHw4gIQkwiZ0eVI5stARxkM8QfpKuN+Eg+vvav1vfvxWPL556fc90wPZze4mfiTtToo4CvZGzvbeWYzDENEhxFDyYOTZws/YE5Nxi6KB7whLCJNpyV6MAwn/Wk/yC9GwIuOE+Os9uTFQmN0cDickQwDs4c+LsWuIBOqEXwhNSPUk1UqP6hG/DtPYw2iHI0HFoLeexYseHj75R1Em7gif6H3Yex78DfG4+Xvh2vR608i8mkREkJSFxN95u5kUDloIW07kK0wuEy+5ax++9+3P+W0X3KwF+RuOlAlH2fREsvQE4hB9QxIji0XsFSTCs+dkuIZ34NGTSiKMTc9QJsYhkt+4s9z1+LfX5x7Hfwc87vGrf/dTt6RHtANEMboFQBiGe+9vr2pvd+k96P32m2d6v/peBz/gcW8YbsrKHY3Z2+i9EhzORhPOOB7+9o5/+P4ffsDje+MRbmREtBkJluyNl/wBj+/e/f439VXvr4ZDXn/Ao7dBvvvB3wqP3uxZ4gTsu5l8f7HWEWFb5//3/W2GCrEHSBFnyzc/hE/da99jedzjBjcnXOL06tZl/7Om/L9WX+vh27LS/QAAAABJRU5ErkJggg==;" vertex="1" parent="1">
          <mxGeometry x="202" y="320" width="70.74" height="50" as="geometry" />
        </mxCell>
        <mxCell id="Rww8otDY1He0HiNTLSRC-10" value="" style="rounded=0;whiteSpace=wrap;html=1;dashed=1;opacity=10;strokeWidth=2;" vertex="1" parent="1">
          <mxGeometry x="150" y="280" width="280" height="130" as="geometry" />
        </mxCell>
        <mxCell id="Rww8otDY1He0HiNTLSRC-11" value="&lt;div style=&quot;line-height: 90%;&quot;&gt;&lt;h4 style=&quot;padding-left: 0px;&quot;&gt;&lt;font face=&quot;Courier New&quot;&gt;应&lt;/font&gt;&lt;/h4&gt;&lt;h4 style=&quot;padding-left: 0px;&quot;&gt;&lt;font face=&quot;Courier New&quot;&gt;用&lt;/font&gt;&lt;/h4&gt;&lt;h4 style=&quot;padding-left: 0px;&quot;&gt;&lt;font face=&quot;Courier New&quot;&gt;服&lt;/font&gt;&lt;/h4&gt;&lt;h4 style=&quot;padding-left: 0px;&quot;&gt;&lt;font face=&quot;Courier New&quot;&gt;务&lt;/font&gt;&lt;/h4&gt;&lt;h4 style=&quot;padding-left: 0px;&quot;&gt;&lt;font face=&quot;Courier New&quot;&gt;层&lt;/font&gt;&lt;/h4&gt;&lt;div&gt;&lt;font face=&quot;Courier New&quot;&gt;&lt;br&gt;&lt;/font&gt;&lt;/div&gt;&lt;/div&gt;" style="text;html=1;align=center;verticalAlign=middle;whiteSpace=wrap;rounded=0;fillColor=#dae8fc;strokeColor=default;fillStyle=auto;gradientColor=none;shadow=0;glass=1;imageVerticalAlign=middle;" vertex="1" parent="1">
          <mxGeometry x="40" y="500" width="60" height="210" as="geometry" />
        </mxCell>
        <mxCell id="Rww8otDY1He0HiNTLSRC-12" value="&lt;div style=&quot;line-height: 90%;&quot;&gt;&lt;h4 style=&quot;padding-left: 0px;&quot;&gt;&lt;font face=&quot;Courier New&quot;&gt;能力层&lt;/font&gt;&lt;/h4&gt;&lt;div&gt;&lt;font face=&quot;Courier New&quot;&gt;&lt;br&gt;&lt;/font&gt;&lt;/div&gt;&lt;/div&gt;" style="text;html=1;align=center;verticalAlign=middle;whiteSpace=wrap;rounded=0;fillColor=#dae8fc;strokeColor=default;fillStyle=auto;gradientColor=none;shadow=0;glass=1;imageVerticalAlign=middle;" vertex="1" parent="1">
          <mxGeometry x="40" y="750" width="60" height="210" as="geometry" />
        </mxCell>
        <mxCell id="Rww8otDY1He0HiNTLSRC-13" value="" style="outlineConnect=0;dashed=0;verticalLabelPosition=bottom;verticalAlign=top;align=center;html=1;shape=mxgraph.aws3.mysql_db_instance;fillColor=#2E73B8;gradientColor=none;" vertex="1" parent="1">
          <mxGeometry x="142" y="1037.35" width="60" height="64.5" as="geometry" />
        </mxCell>
        <mxCell id="Rww8otDY1He0HiNTLSRC-14" value="" style="image;html=1;image=img/lib/clip_art/computers/Server_Tower_128x128.png" vertex="1" parent="1">
          <mxGeometry x="316.5" y="587.55" width="64" height="60" as="geometry" />
        </mxCell>
        <mxCell id="Rww8otDY1He0HiNTLSRC-15" value="" style="points=[];aspect=fixed;html=1;align=center;shadow=0;dashed=0;fillColor=#FF6A00;strokeColor=none;shape=mxgraph.alibaba_cloud.webplus_web_app_service;" vertex="1" parent="1">
          <mxGeometry x="261.84000000000003" y="629.6500000000001" width="39.9" height="39.9" as="geometry" />
        </mxCell>
        <mxCell id="Rww8otDY1He0HiNTLSRC-16" value="Web应用服务器" style="text;html=1;align=center;verticalAlign=middle;whiteSpace=wrap;rounded=0;" vertex="1" parent="1">
          <mxGeometry x="142" y="575.05" width="60" height="85" as="geometry" />
        </mxCell>
        <mxCell id="Rww8otDY1He0HiNTLSRC-17" style="edgeStyle=orthogonalEdgeStyle;rounded=0;orthogonalLoop=1;jettySize=auto;html=1;" edge="1" parent="1" source="Rww8otDY1He0HiNTLSRC-19" target="Rww8otDY1He0HiNTLSRC-39">
          <mxGeometry relative="1" as="geometry" />
        </mxCell>
        <mxCell id="Rww8otDY1He0HiNTLSRC-18" value="Http Response" style="edgeLabel;html=1;align=center;verticalAlign=middle;resizable=0;points=[];" vertex="1" connectable="0" parent="Rww8otDY1He0HiNTLSRC-17">
          <mxGeometry x="-0.2474" relative="1" as="geometry">
            <mxPoint as="offset" />
          </mxGeometry>
        </mxCell>
        <mxCell id="Rww8otDY1He0HiNTLSRC-19" value="" style="rounded=0;whiteSpace=wrap;html=1;dashed=1;opacity=10;strokeWidth=2;" vertex="1" parent="1">
          <mxGeometry x="152" y="550" width="338" height="130" as="geometry" />
        </mxCell>
        <mxCell id="Rww8otDY1He0HiNTLSRC-20" style="edgeStyle=orthogonalEdgeStyle;rounded=0;orthogonalLoop=1;jettySize=auto;html=1;exitX=0.5;exitY=1;exitDx=0;exitDy=0;" edge="1" parent="1">
          <mxGeometry relative="1" as="geometry">
            <mxPoint x="410" y="790" as="targetPoint" />
            <mxPoint x="410" y="673" as="sourcePoint" />
            <Array as="points">
              <mxPoint x="410" y="780" />
            </Array>
          </mxGeometry>
        </mxCell>
        <mxCell id="Rww8otDY1He0HiNTLSRC-21" value="调用服务" style="edgeLabel;html=1;align=center;verticalAlign=middle;resizable=0;points=[];" vertex="1" connectable="0" parent="Rww8otDY1He0HiNTLSRC-20">
          <mxGeometry x="-0.3675" y="1" relative="1" as="geometry">
            <mxPoint as="offset" />
          </mxGeometry>
        </mxCell>
        <mxCell id="Rww8otDY1He0HiNTLSRC-22" value="" style="rounded=0;whiteSpace=wrap;html=1;dashed=1;opacity=30;strokeWidth=2;fillColor=#ffe6cc;strokeColor=#d79b00;" vertex="1" parent="1">
          <mxGeometry x="140" y="273" width="350" height="400" as="geometry" />
        </mxCell>
        <mxCell id="Rww8otDY1He0HiNTLSRC-23" value="VPN虚拟局域网" style="text;html=1;align=center;verticalAlign=middle;whiteSpace=wrap;rounded=0;" vertex="1" parent="1">
          <mxGeometry x="410" y="450" width="60" height="30" as="geometry" />
        </mxCell>
        <mxCell id="Rww8otDY1He0HiNTLSRC-24" value="" style="rounded=0;whiteSpace=wrap;html=1;dashed=1;opacity=10;strokeWidth=2;" vertex="1" parent="1">
          <mxGeometry x="122" y="1009" width="108" height="121" as="geometry" />
        </mxCell>
        <mxCell id="Rww8otDY1He0HiNTLSRC-25" value="&lt;div style=&quot;line-height: 90%;&quot;&gt;&lt;h4 style=&quot;padding-left: 0px;&quot;&gt;&lt;font face=&quot;Courier New&quot;&gt;数&lt;/font&gt;&lt;/h4&gt;&lt;h4 style=&quot;padding-left: 0px;&quot;&gt;&lt;font face=&quot;Courier New&quot;&gt;据&lt;/font&gt;&lt;/h4&gt;&lt;h4 style=&quot;padding-left: 0px;&quot;&gt;&lt;font face=&quot;Courier New&quot;&gt;层&lt;/font&gt;&lt;/h4&gt;&lt;div&gt;&lt;font face=&quot;Courier New&quot;&gt;&lt;br&gt;&lt;/font&gt;&lt;/div&gt;&lt;/div&gt;" style="text;html=1;align=center;verticalAlign=middle;whiteSpace=wrap;rounded=0;fillColor=#dae8fc;strokeColor=default;fillStyle=auto;gradientColor=none;shadow=0;glass=1;imageVerticalAlign=middle;" vertex="1" parent="1">
          <mxGeometry x="40" y="990" width="60" height="210" as="geometry" />
        </mxCell>
        <mxCell id="Rww8otDY1He0HiNTLSRC-26" value="规则引擎" style="sketch=0;outlineConnect=0;fontColor=#232F3E;gradientColor=none;strokeColor=#232F3E;fillColor=#ffffff;dashed=0;verticalLabelPosition=bottom;verticalAlign=top;align=center;html=1;fontSize=12;fontStyle=0;aspect=fixed;shape=mxgraph.aws4.resourceIcon;resIcon=mxgraph.aws4.rule_2;" vertex="1" parent="1">
          <mxGeometry x="590" y="800" width="60" height="60" as="geometry" />
        </mxCell>
        <mxCell id="Rww8otDY1He0HiNTLSRC-27" value="流程引擎" style="verticalLabelPosition=bottom;sketch=0;aspect=fixed;html=1;verticalAlign=top;strokeColor=none;align=center;outlineConnect=0;shape=mxgraph.citrix.process;" vertex="1" parent="1">
          <mxGeometry x="510" y="804" width="52" height="62" as="geometry" />
        </mxCell>
        <mxCell id="Rww8otDY1He0HiNTLSRC-28" value="权限管理" style="verticalLabelPosition=bottom;sketch=0;aspect=fixed;html=1;verticalAlign=top;strokeColor=none;align=center;outlineConnect=0;shape=mxgraph.citrix.role_secure_access;fillColor=#CCCCCC;gradientColor=#000000;gradientDirection=south;" vertex="1" parent="1">
          <mxGeometry x="277.53" y="583.9499999999999" width="24.95" height="24.95" as="geometry" />
        </mxCell>
        <mxCell id="Rww8otDY1He0HiNTLSRC-29" value="" style="image;html=1;image=img/lib/clip_art/computers/Server_Tower_128x128.png" vertex="1" parent="1">
          <mxGeometry x="320.7" y="1037.35" width="60" height="55" as="geometry" />
        </mxCell>
        <mxCell id="Rww8otDY1He0HiNTLSRC-30" value="" style="points=[];aspect=fixed;html=1;align=center;shadow=0;dashed=0;fillColor=#FF6A00;strokeColor=none;shape=mxgraph.alibaba_cloud.oss_object_storage_service;" vertex="1" parent="1">
          <mxGeometry x="269.99999999999994" y="1045.5" width="50.699999999999996" height="38.7" as="geometry" />
        </mxCell>
        <mxCell id="Rww8otDY1He0HiNTLSRC-31" value="OSS存储服务" style="text;html=1;align=center;verticalAlign=middle;whiteSpace=wrap;rounded=0;" vertex="1" parent="1">
          <mxGeometry x="292" y="1100" width="60" height="30" as="geometry" />
        </mxCell>
        <mxCell id="Rww8otDY1He0HiNTLSRC-32" value="短信服务" style="dashed=0;outlineConnect=0;html=1;align=center;labelPosition=center;verticalLabelPosition=bottom;verticalAlign=top;shape=mxgraph.webicons.sms;fillColor=#86D466;gradientColor=#42B418" vertex="1" parent="1">
          <mxGeometry x="398.99999999999994" y="810" width="70" height="50" as="geometry" />
        </mxCell>
        <mxCell id="Rww8otDY1He0HiNTLSRC-33" style="edgeStyle=orthogonalEdgeStyle;rounded=0;orthogonalLoop=1;jettySize=auto;html=1;exitX=0.75;exitY=0;exitDx=0;exitDy=0;" edge="1" parent="1">
          <mxGeometry relative="1" as="geometry">
            <mxPoint x="412.25" y="270" as="sourcePoint" />
            <mxPoint x="410" y="210" as="targetPoint" />
            <Array as="points">
              <mxPoint x="412" y="271" />
              <mxPoint x="410" y="271" />
              <mxPoint x="410" y="241" />
              <mxPoint x="411" y="241" />
            </Array>
          </mxGeometry>
        </mxCell>
        <mxCell id="Rww8otDY1He0HiNTLSRC-34" value="Return Respons" style="edgeLabel;html=1;align=center;verticalAlign=middle;resizable=0;points=[];" vertex="1" connectable="0" parent="Rww8otDY1He0HiNTLSRC-33">
          <mxGeometry x="0.0701" y="-2" relative="1" as="geometry">
            <mxPoint as="offset" />
          </mxGeometry>
        </mxCell>
        <mxCell id="Rww8otDY1He0HiNTLSRC-35" value="" style="edgeStyle=orthogonalEdgeStyle;rounded=0;orthogonalLoop=1;jettySize=auto;html=1;" edge="1" parent="1" source="Rww8otDY1He0HiNTLSRC-36" target="Rww8otDY1He0HiNTLSRC-39">
          <mxGeometry relative="1" as="geometry" />
        </mxCell>
        <mxCell id="Rww8otDY1He0HiNTLSRC-36" value="" style="fontColor=#0066CC;verticalAlign=top;verticalLabelPosition=bottom;labelPosition=center;align=center;html=1;outlineConnect=0;fillColor=#CCCCCC;strokeColor=#6881B3;gradientColor=none;gradientDirection=north;strokeWidth=2;shape=mxgraph.networks.pc;" vertex="1" parent="1">
          <mxGeometry x="690" y="40" width="90" height="70" as="geometry" />
        </mxCell>
        <mxCell id="Rww8otDY1He0HiNTLSRC-37" style="edgeStyle=orthogonalEdgeStyle;rounded=0;orthogonalLoop=1;jettySize=auto;html=1;entryX=1;entryY=0.25;entryDx=0;entryDy=0;" edge="1" parent="1" source="Rww8otDY1He0HiNTLSRC-39" target="Rww8otDY1He0HiNTLSRC-19">
          <mxGeometry relative="1" as="geometry">
            <mxPoint x="727" y="180" as="sourcePoint" />
            <mxPoint x="504" y="580" as="targetPoint" />
          </mxGeometry>
        </mxCell>
        <mxCell id="Rww8otDY1He0HiNTLSRC-38" value="Http Request" style="edgeLabel;html=1;align=center;verticalAlign=middle;resizable=0;points=[];" vertex="1" connectable="0" parent="Rww8otDY1He0HiNTLSRC-37">
          <mxGeometry x="0.3326" y="3" relative="1" as="geometry">
            <mxPoint as="offset" />
          </mxGeometry>
        </mxCell>
        <mxCell id="Rww8otDY1He0HiNTLSRC-39" value="" style="sketch=0;pointerEvents=1;shadow=0;dashed=0;html=1;strokeColor=none;fillColor=#434445;aspect=fixed;labelPosition=center;verticalLabelPosition=bottom;verticalAlign=top;align=center;outlineConnect=0;shape=mxgraph.vvd.web_browser;" vertex="1" parent="1">
          <mxGeometry x="693" y="150" width="84.51" height="60" as="geometry" />
        </mxCell>
        <mxCell id="Rww8otDY1He0HiNTLSRC-40" value="" style="rounded=0;whiteSpace=wrap;html=1;dashed=1;opacity=10;strokeWidth=2;" vertex="1" parent="1">
          <mxGeometry x="170" y="783" width="150" height="104" as="geometry" />
        </mxCell>
        <mxCell id="Rww8otDY1He0HiNTLSRC-41" style="edgeStyle=orthogonalEdgeStyle;rounded=0;orthogonalLoop=1;jettySize=auto;html=1;exitX=0.5;exitY=0;exitDx=0;exitDy=0;" edge="1" parent="1" source="Rww8otDY1He0HiNTLSRC-42">
          <mxGeometry relative="1" as="geometry">
            <mxPoint x="350.9200000000001" y="676" as="targetPoint" />
            <mxPoint x="350.9000000000001" y="995" as="sourcePoint" />
          </mxGeometry>
        </mxCell>
        <mxCell id="Rww8otDY1He0HiNTLSRC-42" value="" style="rounded=0;whiteSpace=wrap;html=1;dashed=1;opacity=10;strokeWidth=2;" vertex="1" parent="1">
          <mxGeometry x="265.84000000000003" y="1009" width="170.16" height="121" as="geometry" />
        </mxCell>
        <mxCell id="Rww8otDY1He0HiNTLSRC-43" style="edgeStyle=orthogonalEdgeStyle;rounded=0;orthogonalLoop=1;jettySize=auto;html=1;entryX=0.5;entryY=0;entryDx=0;entryDy=0;" edge="1" parent="1" target="Rww8otDY1He0HiNTLSRC-24">
          <mxGeometry relative="1" as="geometry">
            <mxPoint x="176" y="900" as="sourcePoint" />
            <Array as="points">
              <mxPoint x="176" y="890" />
            </Array>
          </mxGeometry>
        </mxCell>
        <mxCell id="Rww8otDY1He0HiNTLSRC-44" value="Consul API注册和发现" style="verticalLabelPosition=bottom;verticalAlign=top;html=1;shadow=0;dashed=0;strokeWidth=1;shape=mxgraph.ios.iSortFindIcon;fillColor=#8BbEff;fillColor2=#135Ec8;strokeColor=#ffffff;sketch=0;" vertex="1" parent="1">
          <mxGeometry x="224" y="818" width="56" height="52" as="geometry" />
        </mxCell>
        <mxCell id="Rww8otDY1He0HiNTLSRC-45" value="" style="rounded=0;whiteSpace=wrap;html=1;dashed=1;opacity=10;strokeWidth=2;fillColor=#e1d5e7;strokeColor=#9673a6;" vertex="1" parent="1">
          <mxGeometry x="390" y="792" width="280" height="98" as="geometry" />
        </mxCell>
        <mxCell id="Rww8otDY1He0HiNTLSRC-46" style="edgeStyle=orthogonalEdgeStyle;rounded=0;orthogonalLoop=1;jettySize=auto;html=1;entryX=0.912;entryY=0.995;entryDx=0;entryDy=0;entryPerimeter=0;" edge="1" parent="1">
          <mxGeometry relative="1" as="geometry">
            <mxPoint x="460" y="788" as="sourcePoint" />
            <mxPoint x="460.2560000000001" y="675.3499999999999" as="targetPoint" />
            <Array as="points">
              <mxPoint x="460" y="788" />
            </Array>
          </mxGeometry>
        </mxCell>
        <mxCell id="Rww8otDY1He0HiNTLSRC-47" value="提供服务" style="edgeLabel;html=1;align=center;verticalAlign=middle;resizable=0;points=[];" vertex="1" connectable="0" parent="Rww8otDY1He0HiNTLSRC-46">
          <mxGeometry x="-0.0217" y="-1" relative="1" as="geometry">
            <mxPoint as="offset" />
          </mxGeometry>
        </mxCell>
        <mxCell id="Rww8otDY1He0HiNTLSRC-48" value="" style="endArrow=classic;html=1;rounded=0;exitX=0.633;exitY=1.02;exitDx=0;exitDy=0;exitPerimeter=0;entryX=0.598;entryY=0.013;entryDx=0;entryDy=0;entryPerimeter=0;" edge="1" parent="1" source="Rww8otDY1He0HiNTLSRC-19" target="Rww8otDY1He0HiNTLSRC-42">
          <mxGeometry width="50" height="50" relative="1" as="geometry">
            <mxPoint x="510" y="1110" as="sourcePoint" />
            <mxPoint x="370" y="1000" as="targetPoint" />
          </mxGeometry>
        </mxCell>
        <mxCell id="Rww8otDY1He0HiNTLSRC-49" value="" style="endArrow=classic;html=1;rounded=0;exitX=0.221;exitY=1.014;exitDx=0;exitDy=0;exitPerimeter=0;" edge="1" parent="1" source="Rww8otDY1He0HiNTLSRC-19">
          <mxGeometry width="50" height="50" relative="1" as="geometry">
            <mxPoint x="228" y="690" as="sourcePoint" />
            <mxPoint x="228" y="780" as="targetPoint" />
          </mxGeometry>
        </mxCell>
        <mxCell id="Rww8otDY1He0HiNTLSRC-50" value="API调用" style="edgeLabel;html=1;align=center;verticalAlign=middle;resizable=0;points=[];" vertex="1" connectable="0" parent="Rww8otDY1He0HiNTLSRC-49">
          <mxGeometry x="-0.253" relative="1" as="geometry">
            <mxPoint as="offset" />
          </mxGeometry>
        </mxCell>
        <mxCell id="Rww8otDY1He0HiNTLSRC-51" value="" style="endArrow=classic;html=1;rounded=0;exitX=0.581;exitY=0.035;exitDx=0;exitDy=0;exitPerimeter=0;" edge="1" parent="1">
          <mxGeometry width="50" height="50" relative="1" as="geometry">
            <mxPoint x="257.1500000000001" y="781.6400000000001" as="sourcePoint" />
            <mxPoint x="257" y="677" as="targetPoint" />
          </mxGeometry>
        </mxCell>
        <mxCell id="Rww8otDY1He0HiNTLSRC-52" value="数据返回" style="edgeLabel;html=1;align=center;verticalAlign=middle;resizable=0;points=[];" vertex="1" connectable="0" parent="Rww8otDY1He0HiNTLSRC-51">
          <mxGeometry x="-0.0539" y="2" relative="1" as="geometry">
            <mxPoint as="offset" />
          </mxGeometry>
        </mxCell>
        <mxCell id="Rww8otDY1He0HiNTLSRC-53" value="" style="endArrow=classic;html=1;rounded=0;" edge="1" parent="1">
          <mxGeometry width="50" height="50" relative="1" as="geometry">
            <mxPoint x="220" y="1000" as="sourcePoint" />
            <mxPoint x="220" y="890" as="targetPoint" />
          </mxGeometry>
        </mxCell>
      </root>
    </mxGraphModel>
  </diagram>
</mxfile>
